<svg xmlns="http://www.w3.org/2000/svg" viewBox="0 0 64 64" data-di-res-id="199674f5-a8380ebb" data-di-rand="1658525823293">
  <defs>
    <linearGradient id="the-playstation-plus-collection-a" x1="31.022%" x2="80.382%" y1="18.147%" y2="78.339%">
      <stop offset="0%" stop-color="#C3862C"/>
      <stop offset="100%" stop-color="#986D29"/>
    </linearGradient>
    <linearGradient id="the-playstation-plus-collection-b" x1=".404%" x2="92.749%" y1="23.366%" y2="93.475%">
      <stop offset="0%" stop-color="#FDE64E"/>
      <stop offset="100%" stop-color="#FCC013"/>
    </linearGradient>
  </defs>
  <g fill-rule="evenodd" transform="translate(6 7)">
    <path d="M26.59,11.7 C27.1731599,11.7054251 27.6445749,12.1768401 27.65,12.76 L27.65,12.76 L27.65,29.39 L27.14,29.46 C26.5936477,29.5454333 26.0680051,29.7319516 25.59,30.01 C25.1568916,30.2696485 24.7768645,30.6089584 24.47,31.01 L24.47,31.01 L22.78,33.22 C22.1202754,34.0714929 21.8318535,35.1530748 21.98,36.22 L21.98,36.22 L22.41,39.31 L1.06,39.31 C0.49191466,39.3053103 0.0265275914,38.857485 0,38.29 L0,38.29 L0,12.76 C0.00542509432,12.1768401 0.476840095,11.7054251 1.06,11.7 L26.59,11.7 Z M18.59,19.7 C17.5029751,19.8543491 16.4791404,20.3040062 15.63,21 L12,21 C11.1609621,20.2929093 10.1440908,19.8294373 9.06,19.66 C7.41416698,19.7020368 6.01593884,20.8762165 5.69,22.49 C5.69,22.49 4.69,28.33 4.63,29.8 C4.57,31.27 6.03,31.35 6.49,31.35 C7.26726707,31.3468201 8.01296044,31.0420896 8.57,30.5 C9.33876256,29.5290972 10.0087469,28.4839217 10.57,27.38 L17,27.38 C17.5612531,28.4839217 18.2312374,29.5290972 19,30.5 C19.5570396,31.0420896 20.3027329,31.3468201 21.08,31.35 C21.55,31.35 23.08,31.35 22.94,29.8 C22.8,28.25 22,22.54 21.94,22.51 C21.6140612,20.8962165 20.215833,19.7220368 18.57,19.68 L18.59,19.7 Z M32.44,5.85 C33.0231599,5.85542509 33.4945749,6.32684009 33.5,6.91 L33.5,6.91 L33.5,20.63 C33.1499283,20.7169302 32.813452,20.8515207 32.5,21.03 C32.0537853,21.2913143 31.6576137,21.6299225 31.33,22.03 L31.33,22.03 L30.86,22.64 L30.86,9.57 C30.8545749,8.98684009 30.3831599,8.51542509 29.8,8.51 L5.85,8.51 L5.85,6.91 C5.85542509,6.32684009 6.32684009,5.85542509 6.91,5.85 L32.44,5.85 Z M38.29,0 C38.8731599,0.00542509432 39.3445749,0.476840095 39.35,1.06 L39.35,1.06 L39.35,19.78 L36.69,20.14 L36.69,3.72 C36.6845749,3.13684009 36.2131599,2.66542509 35.63,2.66 L11.7,2.66 L11.7,1.06 C11.7054251,0.476840095 12.1768401,0.00542509432 12.76,0 L38.29,0 Z"/>
    <g transform="translate(25.012 22.83)">
      <path fill="url(#the-playstation-plus-collection-a)" d="M15.387895,0.0500579574 L9.22789499,0.890057957 C9.11366361,0.899175434 9.003589,0.937013581 8.90789499,1.00005796 L8.90789499,1.00005796 C8.80932225,1.05400751 8.72393941,1.12914441 8.65789499,1.22005796 L8.65789499,1.22005796 L6.98789499,3.43005796 C6.85101946,3.61358457 6.79013416,3.84279981 6.81789499,4.07005796 L6.81789499,4.07005796 L7.50789499,9.07005796 L2.43789499,9.76005796 C2.3230284,9.78007649 2.21179939,9.81715283 2.10789499,9.87005796 L2.10789499,9.87005796 C2.01400975,9.93078142 1.93255681,10.0088405 1.86789499,10.100058 L1.86789499,10.100058 C1.83543273,10.1431653 1.80855278,10.1902052 1.78789499,10.240058 L1.78789499,10.240058 C1.80855278,10.1902052 1.83543273,10.1431653 1.86789499,10.100058 L1.86789499,10.100058 L0.17789499,12.300058 C0.0380749981,12.4821487 -0.0231347315,12.7125853 0.00789499001,12.940058 L0.00789499001,12.940058 L0.84789499,19.050058 C0.879509168,19.2785351 0.997637138,19.4861539 1.17789499,19.630058 L1.17789499,19.630058 C1.36455089,19.7679476 1.59856054,19.8255499 1.82789499,19.790058 L1.82789499,19.790058 L8.82789499,18.790058 L9.77789499,25.790058 C9.80702452,26.0190744 9.93022196,26.2256113 10.117895,26.360058 L10.117895,26.360058 C10.2989502,26.5019695 10.5302835,26.5634174 10.757895,26.530058 L10.757895,26.530058 L16.907895,25.690058 C17.1397381,25.6612484 17.3495024,25.5382831 17.487895,25.350058 L17.487895,25.350058 C17.487895,25.350058 19.107895,23.230058 19.177895,23.150058 L19.177895,23.150058 C19.2409054,23.0585309 19.2882204,22.9571418 19.317895,22.850058 L19.317895,22.850058 C19.3430835,22.7347509 19.3430835,22.6153651 19.317895,22.500058 L19.317895,22.500058 L18.627895,17.500058 L23.697895,16.800058 C23.9234485,16.7679883 24.1277747,16.6496941 24.267895,16.470058 L24.267895,16.470058 L25.987895,14.280058 L25.987895,14.280058 C26.0536471,14.1887415 26.1042931,14.0874495 26.137895,13.980058 L26.137895,13.980058 C26.1531342,13.8672369 26.1531342,13.752879 26.137895,13.640058 L26.137895,13.640058 L25.297895,7.53005796 C25.2689687,7.30342971 25.1500284,7.09798732 24.967895,6.96005796 L24.967895,6.96005796 C24.7827323,6.81864117 24.5485842,6.75740244 24.317895,6.79005796 L24.317895,6.79005796 L17.317895,7.79005796 L16.367895,0.790057957 C16.3404878,0.536905979 16.2010332,0.309374785 15.987895,0.170057957 L15.987895,0.170057957 C15.8380325,0.0576344615 15.6552264,-0.00212907186 15.467895,0 L15.387895,0"/>
      <path fill="url(#the-playstation-plus-collection-b)" d="M9.22789499,0.890057957 C9.11400445,0.900783003 9.0043086,0.938490952 8.90789499,1.00005796 C8.80932225,1.05400751 8.72393941,1.12914441 8.65789499,1.22005796 C8.58846544,1.30910243 8.53747284,1.41108763 8.50789499,1.52005796 C8.48256077,1.63197551 8.48256077,1.74814041 8.50789499,1.86005796 L9.50789499,8.86005796 L2.50789499,9.86005796 C2.3930284,9.88007649 2.28179939,9.91715283 2.17789499,9.97005796 C2.08400975,10.0307814 2.00255681,10.1088405 1.93789499,10.200058 C1.86664165,10.2841601 1.81535914,10.3833063 1.78789499,10.490058 C1.76270647,10.6053651 1.76270647,10.7247509 1.78789499,10.840058 L2.61789499,16.950058 C2.65542858,17.1760858 2.77684477,17.3796365 2.95789499,17.520058 C3.14187172,17.6559995 3.37070952,17.7167846 3.59789499,17.690058 L10.597895,16.690058 L11.597895,23.690058 C11.6244493,23.9244772 11.7472358,24.1373155 11.9368769,24.27765 C12.126518,24.4179844 12.3659529,24.4731898 12.597895,24.430058 L18.747895,23.590058 C18.8638891,23.5747095 18.9758907,23.5373756 19.077895,23.480058 C19.1721993,23.4202215 19.2565541,23.3459893 19.327895,23.260058 C19.3909054,23.1685309 19.4382204,23.0671418 19.467895,22.960058 C19.4884704,22.8442985 19.4884704,22.7258174 19.467895,22.610058 L18.467895,15.610058 L25.467895,14.610058 C25.584517,14.5913757 25.6965129,14.5506499 25.797895,14.490058 C25.8944709,14.4333046 25.9793233,14.3586344 26.047895,14.270058 C26.1136471,14.1787415 26.1642931,14.0774495 26.197895,13.970058 C26.2131342,13.8572369 26.2131342,13.742879 26.197895,13.630058 L25.357895,7.52005796 C25.3289687,7.29342971 25.2100284,7.08798732 25.027895,6.95005796 C24.8427323,6.80864117 24.6085842,6.74740244 24.377895,6.78005796 L17.377895,7.78005796 L16.427895,0.780057957 C16.3676624,0.352464895 15.9996889,0.0358364906 15.567895,0.0400162406 L15.387895,0.0400162406 L9.22789499,0.890057957 Z"/>
      <path fill="#C3862C" d="M21.927895 12.940058C21.1984345 13.0424833 20.4791627 12.6951047 20.1058559 12.0600885 19.7325492 11.4250722 19.7788275 10.62765 20.2230869 10.0400811 20.6673463 9.45251225 21.4219741 9.1906714 22.1346889 9.37679328 22.8474036 9.56291515 23.3776503 10.1602946 23.477895 10.890058 23.6087018 11.8822658 22.9181952 12.7955164 21.927895 12.940058M21.307895 8.43005796C20.2087159 8.57814732 19.3072261 9.37427399 19.024355 10.4467054 18.7414839 11.5191368 19.1330313 12.6563229 20.0161733 13.3272814 20.8993153 13.9982399 22.0998415 14.0706162 23.0571945 13.5106159 24.0145475 12.9506156 24.5398779 11.8687055 24.387895 10.770058 24.1759594 9.27781084 22.8023394 8.23421644 21.307895 8.43005796M11.597895 6.17005796L12.667895 3.48005796 14.477895 5.77005796 11.597895 6.17005796zM12.397895 1.67005796L10.157895 7.29005796 16.157895 6.46005796 12.397895 1.67005796zM4.68789499 15.050058L4.25789499 11.940058 7.36789499 11.510058 7.79789499 14.630058 4.68789499 15.050058zM3.22789499 11.170058L3.89789499 16.110058 8.82789499 15.430058 8.15789499 10.500058 3.22789499 11.170058z"/>
      <polygon fill="#C3862C" points="15.628 19.94 17.768 21.56 17.208 22.29 15.078 20.67 13.448 22.81 12.718 22.25 14.338 20.11 12.208 18.49 12.758 17.76 14.898 19.38 16.518 17.25 17.248 17.8"/>
    </g>
  </g>
</svg>