<svg xmlns="http://www.w3.org/2000/svg" viewBox="0 0 64 64" data-di-res-id="4d9493e5-cccd6732" data-di-rand="1658525823292">
  <path fill-rule="evenodd" d="M15.54,25.04 C17.9408696,25.04 20.0032136,26.6045369 22.0945969,27.8695323 L22.38,28.04 L30.79,28.04 C31.99,27.34 33.17,26.51 34.4,25.91 C36.9332651,29.7621985 41.1120927,32.2192456 45.71,32.56 C45.7867308,33.0082692 45.8803143,33.5594675 45.9852621,34.1842486 L46.2255439,35.6249977 C46.9020118,39.7102959 47.8215385,45.5138462 47.96,47.56 C48.18,51.0002492 44.71,51.0002492 43.63,51.0002492 C41.817024,51.0151926 40.0671121,50.3352678 38.74,49.1 C37.0837874,47.1591354 35.6200135,45.0627483 34.3689256,42.8404404 L34,42.17 L19.14,42.17 C17.8035684,44.6398755 16.2115078,46.9626081 14.39,49.1 C13.0729699,50.3257707 11.3391824,51.0049864 9.54,51.0002492 C8.46,51.0002492 5,51.0002492 5.22,47.58 C5.30859375,46.2089062 5.76026367,43.1167603 6.25289646,39.9937183 L6.36291378,39.2998874 C6.89725135,35.9468279 7.45136302,32.7027993 7.62478817,31.669053 L7.66561031,31.4235702 C7.67505615,31.3657129 7.68,31.33375 7.68,31.33 C8.53069561,27.6683005 11.7808804,25.0673256 15.54,25.04 Z M52.08,9 C55.8411073,10.7166715 58.2860093,14.4364985 58.37,18.57 C58.2171925,24.6781733 53.1484855,29.509774 47.04,29.37 C44.1900258,29.3966727 41.4354359,28.3679091 39.3032442,26.4892447 L39.04,26.25 L41.21,25.25 C42.8576061,26.5535091 44.8991273,27.2586977 47,27.25 C51.8607449,27.3228682 55.8744924,23.4696706 56,18.61 C55.9703707,15.6025198 54.3645441,12.831235 51.77,11.31 C52.0103191,10.7401126 52.136045,10.1284734 52.14,9.51 C52.1298782,9.33898285 52.1098445,9.16869684 52.08,9 Z M47.3,16.84 L48.74,19.23 L37.52,24.59 L36.8,23.4 L47.3,16.84 Z M46.98,6.72 C48.5761029,6.72 49.87,7.95569409 49.87,9.48 C49.87,11.0043059 48.5761029,12.24 46.98,12.24 C46.3691458,12.24 45.8025562,12.0590059 45.3358223,11.7501084 C44.6360203,11.9146118 43.960276,12.1806443 43.33,12.54 C42.2101576,13.1474837 41.2715553,14.0412263 40.61,15.13 C39.9600083,16.1930263 39.6141213,17.4140076 39.61,18.66 L39.61625,18.855 L39.61625,18.855 L39.63,19.05 L36,21.32 C35.8095168,20.6049107 35.6960852,19.8719296 35.6613699,19.1335649 L35.65,18.69 L35.65,18.64 L35.6599579,18.2608918 C35.7381919,16.4947253 36.2600366,14.7744397 37.18,13.26 C38.1981515,11.5899389 39.6313104,10.2119015 41.34,9.26 C42.3320099,8.71622085 43.3927425,8.31930956 44.4890738,8.07776544 C44.9916148,7.26599039 45.9190427,6.72 46.98,6.72 Z"/>
</svg>